<?xml version="1.0" encoding="utf-8"?>
<!-- Generator: Adobe Illustrator 25.2.1, SVG Export Plug-In . SVG Version: 6.00 Build 0)  -->
<svg version="1.2" baseProfile="tiny" id="Layer_1" xmlns="http://www.w3.org/2000/svg" xmlns:xlink="http://www.w3.org/1999/xlink"
	 x="0px" y="0px" viewBox="0 0 1200 630" overflow="visible" xml:space="preserve">
<rect x="-1.5" y="1.41" fill="#1A0D90" width="1202" height="629"/>
<g>
	<path fill="#1A0D90" d="M215.99,449.91c-21.77,0-39.49-17.71-39.49-39.49V202.65c0-21.77,17.71-39.49,39.49-39.49h783.03
		c21.77,0,39.49,17.71,39.49,39.49v207.78c0,21.77-17.71,39.49-39.49,39.49H215.99z"/>
	<path fill="#FFFFFF" d="M999.01,170.66c17.64,0,31.99,14.35,31.99,31.99v207.78c0,17.64-14.35,31.99-31.99,31.99H215.99
		c-17.64,0-31.99-14.35-31.99-31.99V202.65c0-17.64,14.35-31.99,31.99-31.99H999.01 M999.01,155.66H215.99
		c-25.95,0-46.99,21.04-46.99,46.99v207.78c0,25.95,21.04,46.99,46.99,46.99h783.03c25.95,0,46.99-21.04,46.99-46.99V202.65
		C1046,176.7,1024.96,155.66,999.01,155.66L999.01,155.66z"/>
</g>
<rect x="241.5" y="118.41" fill="#1A0D90" width="368" height="109"/>
<text transform="matrix(0.9897 0 0 1 252.5889 197.1738)" fill="#FADF14" font-family="'Arial-Black'" font-size="86px">DÜZCE</text>
<rect x="167.5" y="216.41" fill="#1A0D90" width="87" height="26"/>
<rect x="961.5" y="380.41" fill="#1A0D90" width="87" height="26"/>
<rect x="250" y="189.18" fill="none" width="735" height="278.46"/>
<text transform="matrix(1 0 0 1 250 403.6807)" fill="#FFFFFF" font-family="'Arial-Black'" font-size="250px">S</text>
<text transform="matrix(1 0 0 1 436.792 403.6807)" fill="#FADF14" font-family="'Arial-Black'" font-size="250px">E</text>
<text transform="matrix(1 0 0 1 623.584 403.6807)" fill="#FFFFFF" font-family="'Arial-Black'" font-size="250px">F</text>
<text transform="matrix(1 0 0 1 773.0225 403.6807)" fill="#FFFFFF" font-family="'Arial-Black'" font-size="250px">A</text>
<rect x="613.5" y="410.41" fill="#1A0D90" width="371" height="61"/>
<text transform="matrix(1 0 0 1 625.2974 468.187)" fill="#FADF14" font-family="'Arial-Black'" font-size="60px">N</text>
<text transform="matrix(1 0 0 1 676.1919 468.187)" fill="#FADF14" font-family="'Arial-Black'" font-size="60px">A</text>
<text transform="matrix(1 0 0 1 724.3618 468.187)" fill="#FADF14" font-family="'Arial-Black'" font-size="60px">K</text>
<text transform="matrix(1 0 0 1 775.8423 468.187)" fill="#FADF14" font-family="'Arial-Black'" font-size="60px">L</text>
<text transform="matrix(1 0 0 1 817.3618 468.187)" fill="#FADF14" font-family="'Arial-Black'" font-size="60px">I</text>
<text transform="matrix(1 0 0 1 842.2114 468.187)" fill="#FADF14" font-family="'Arial-Black'" font-size="60px">Y</text>
<text transform="matrix(1 0 0 1 884.7271 468.187)" fill="#FADF14" font-family="'Arial-Black'" font-size="60px">A</text>
<text transform="matrix(1 0 0 1 928.7661 468.187)" fill="#FADF14" font-family="'Arial-Black'" font-size="60px">T</text>
</svg>
