<?xml version="1.0" encoding="utf-8"?>
<!-- Generator: Adobe Illustrator 25.2.1, SVG Export Plug-In . SVG Version: 6.00 Build 0)  -->
<svg version="1.2" baseProfile="tiny" id="Layer_1" xmlns="http://www.w3.org/2000/svg" xmlns:xlink="http://www.w3.org/1999/xlink"
	 x="0px" y="0px" viewBox="0 0 883 352.17" overflow="visible" xml:space="preserve">
<rect fill="#1A0D90" width="882" height="353"/>
<g>
	<path fill="#1A0D90" d="M50.49,331.5C28.71,331.5,11,313.79,11,292.01V84.24c0-21.77,17.71-39.49,39.49-39.49h783.03
		c21.77,0,39.49,17.71,39.49,39.49v207.78c0,21.77-17.71,39.49-39.49,39.49H50.49z"/>
	<path fill="#FFFFFF" d="M833.51,52.25c17.64,0,31.99,14.35,31.99,31.99v207.78c0,17.64-14.35,31.99-31.99,31.99H50.49
		c-17.64,0-31.99-14.35-31.99-31.99V84.24c0-17.64,14.35-31.99,31.99-31.99H833.51 M833.51,37.25H50.49
		C24.54,37.25,3.5,58.29,3.5,84.24v207.78C3.5,317.96,24.54,339,50.49,339h783.03c25.95,0,46.99-21.04,46.99-46.99V84.24
		C880.5,58.29,859.46,37.25,833.51,37.25L833.51,37.25z"/>
</g>
<rect x="76" fill="#1A0D90" width="368" height="109"/>
<text transform="matrix(0.9897 0 0 1 87.0889 78.7593)" fill="#FADF14" font-family="'Arial-Black'" font-size="86px">DÜZCE</text>
<rect x="2" y="98" fill="#1A0D90" width="87" height="26"/>
<rect x="796" y="262" fill="#1A0D90" width="87" height="26"/>
<rect x="84.5" y="70.77" fill="none" width="735" height="278.46"/>
<text transform="matrix(1 0 0 1 84.5 285.2661)" fill="#FFFFFF" font-family="'Arial-Black'" font-size="250px">S</text>
<text transform="matrix(1 0 0 1 271.292 285.2661)" fill="#FADF14" font-family="'Arial-Black'" font-size="250px">E</text>
<text transform="matrix(1 0 0 1 458.084 285.2661)" fill="#FFFFFF" font-family="'Arial-Black'" font-size="250px">F</text>
<text transform="matrix(1 0 0 1 607.5225 285.2661)" fill="#FFFFFF" font-family="'Arial-Black'" font-size="250px">A</text>
<rect x="448" y="292" fill="#1A0D90" width="371" height="61"/>
<text transform="matrix(1 0 0 1 459.7974 349.7725)" fill="#FADF14" font-family="'Arial-Black'" font-size="60px">N</text>
<text transform="matrix(1 0 0 1 510.6919 349.7725)" fill="#FADF14" font-family="'Arial-Black'" font-size="60px">A</text>
<text transform="matrix(1 0 0 1 558.8618 349.7725)" fill="#FADF14" font-family="'Arial-Black'" font-size="60px">K</text>
<text transform="matrix(1 0 0 1 610.3423 349.7725)" fill="#FADF14" font-family="'Arial-Black'" font-size="60px">L</text>
<text transform="matrix(1 0 0 1 651.8618 349.7725)" fill="#FADF14" font-family="'Arial-Black'" font-size="60px">I</text>
<text transform="matrix(1 0 0 1 676.7114 349.7725)" fill="#FADF14" font-family="'Arial-Black'" font-size="60px">Y</text>
<text transform="matrix(1 0 0 1 719.2271 349.7725)" fill="#FADF14" font-family="'Arial-Black'" font-size="60px">A</text>
<text transform="matrix(1 0 0 1 763.2661 349.7725)" fill="#FADF14" font-family="'Arial-Black'" font-size="60px">T</text>
</svg>
